<svg xmlns="http://www.w3.org/2000/svg" viewBox="0 0 700 250" width="700" height="250">
	<style>
		tspan { white-space:pre }
		.shp0 { fill: #000000 } 
	</style>
	<path id="Path 28" fill-rule="evenodd" class="shp0" d="M157.47 1.15L178.04 1.15L178.04 121.56L157.47 121.56L157.47 1.15ZM276.74 78.28C278.39 81.83 279.22 85.87 279.22 90.41C279.22 96.51 277.99 101.66 275.53 105.86C273.06 110.06 269.74 113.47 265.58 116.1C261.41 118.73 256.61 120.63 251.18 121.81C245.74 122.99 240.01 123.57 233.96 123.57C231.95 123.57 229.47 123.42 226.53 123.11C223.59 122.8 220.58 122.36 217.51 121.77C214.43 121.18 211.52 120.47 208.77 119.63C206.03 118.79 203.82 117.84 202.14 116.77L202.14 96.2C203.99 97.88 206.18 99.39 208.73 100.74C211.28 102.08 213.98 103.21 216.83 104.14C219.69 105.06 222.54 105.77 225.4 106.28C228.25 106.78 230.88 107.03 233.29 107.03C241.69 107.03 247.94 105.63 252.06 102.83C256.17 100.04 258.23 95.98 258.23 90.66C258.23 87.81 257.54 85.33 256.17 83.23C254.8 81.13 252.88 79.21 250.42 77.48C247.96 75.74 245.06 74.08 241.73 72.48C238.4 70.89 234.83 69.22 231.02 67.49C226.94 65.3 223.13 63.09 219.61 60.85C216.08 58.61 213.01 56.14 210.41 53.42C207.81 50.71 205.76 47.64 204.28 44.23C202.8 40.81 202.06 36.81 202.06 32.22C202.06 26.57 203.33 21.66 205.88 17.49C208.42 13.32 211.78 9.87 215.95 7.16C220.12 4.44 224.87 2.43 230.19 1.11C235.5 -0.2 240.93 -0.86 246.47 -0.86C259.07 -0.86 268.25 0.57 274.01 3.42L274.01 23.15C267.18 18.23 258.4 15.76 247.65 15.76C244.68 15.76 241.73 16.04 238.79 16.6C235.85 17.16 233.22 18.09 230.9 19.37C228.57 20.66 226.69 22.31 225.23 24.33C223.78 26.34 223.05 28.78 223.05 31.63C223.05 34.32 223.61 36.64 224.73 38.6C225.85 40.56 227.48 42.35 229.64 43.98C231.79 45.6 234.42 47.18 237.53 48.72C240.64 50.26 244.23 51.92 248.32 53.72C252.52 55.9 256.48 58.2 260.2 60.6C263.92 63.01 267.2 65.67 270.03 68.58C272.85 71.49 275.09 74.72 276.74 78.28ZM370.36 78.28C372.01 81.83 372.84 85.87 372.84 90.41C372.84 96.51 371.61 101.66 369.14 105.86C366.68 110.06 363.36 113.47 359.19 116.1C355.02 118.73 350.22 120.63 344.79 121.81C339.36 122.99 333.63 123.57 327.58 123.57C325.57 123.57 323.09 123.42 320.15 123.11C317.21 122.8 314.2 122.36 311.12 121.77C308.05 121.18 305.13 120.47 302.39 119.63C299.65 118.79 297.44 117.84 295.76 116.77L295.76 96.2C297.61 97.88 299.8 99.39 302.35 100.74C304.9 102.08 307.6 103.21 310.45 104.14C313.31 105.06 316.16 105.77 319.02 106.28C321.87 106.78 324.5 107.03 326.91 107.03C335.31 107.03 341.56 105.63 345.68 102.83C349.79 100.04 351.85 95.98 351.85 90.66C351.85 87.81 351.16 85.33 349.79 83.23C348.42 81.13 346.5 79.21 344.04 77.48C341.57 75.74 338.68 74.08 335.35 72.48C332.02 70.89 328.45 69.22 324.64 67.49C320.56 65.3 316.75 63.09 313.22 60.85C309.7 58.61 306.63 56.14 304.03 53.42C301.43 50.71 299.38 47.64 297.9 44.23C296.42 40.81 295.67 36.81 295.67 32.22C295.67 26.57 296.95 21.66 299.49 17.49C302.04 13.32 305.4 9.87 309.57 7.16C313.74 4.44 318.48 2.43 323.8 1.11C329.12 -0.2 334.55 -0.86 340.09 -0.86C352.69 -0.86 361.87 0.57 367.63 3.42L367.63 23.15C360.8 18.23 352.02 15.76 341.27 15.76C338.3 15.76 335.35 16.04 332.41 16.6C329.47 17.16 326.84 18.09 324.52 19.37C322.19 20.66 320.3 22.31 318.85 24.33C317.39 26.34 316.67 28.78 316.67 31.63C316.67 34.32 317.23 36.64 318.35 38.6C319.46 40.56 321.1 42.35 323.26 43.98C325.41 45.6 328.04 47.18 331.15 48.72C334.26 50.26 337.85 51.92 341.94 53.72C346.14 55.9 350.1 58.2 353.82 60.6C357.54 63.01 360.82 65.67 363.64 68.58C366.47 71.49 368.71 74.72 370.36 78.28ZM543.81 1.29L543.22 121.42L519.65 121.42L520.13 22.85L494.45 84.72L511.64 121.43L488.07 121.43L478.49 100.97L400.06 120.01L399.4 121.43L375.82 121.43L431.95 1.57L431.81 1.29L455.66 1.29L455.52 1.57L477.16 47.79L520.23 3.26L520.24 1.29L543.81 1.29ZM475.81 95.25L470.16 83.19L421.84 108.35L475.81 95.25ZM417.79 103.48L467.54 77.58L463.38 68.7L417.79 103.48ZM407.92 103.24L460.69 62.96L443.74 26.75L407.92 103.24ZM479.97 53.79L483.3 60.89L503.47 29.5L479.97 53.79ZM510.4 30.15L486.4 67.52L490.9 77.13L510.4 30.15ZM301.54 196.11L297.12 196.11L297.12 170.27L301.54 170.27L301.54 196.11ZM323.14 196.11L318.96 196.11L318.96 185.71C318.96 182.27 317.73 180.54 315.3 180.54C314.02 180.54 312.97 181.02 312.14 181.97C311.31 182.93 310.9 184.13 310.9 185.59L310.9 196.11L306.7 196.11L306.7 177.66L310.9 177.66L310.9 180.72L310.97 180.72C312.35 178.39 314.35 177.22 316.95 177.22C318.96 177.22 320.49 177.88 321.55 179.18C322.61 180.48 323.14 182.37 323.14 184.83L323.14 196.11ZM326.34 195.54L326.34 191.66C327.91 192.85 329.63 193.45 331.52 193.45C334.04 193.45 335.3 192.7 335.3 191.21C335.3 190.79 335.2 190.43 334.98 190.14C334.76 189.84 334.47 189.58 334.1 189.36C333.74 189.13 333.3 188.92 332.81 188.74C332.31 188.56 331.75 188.36 331.14 188.13C330.38 187.83 329.7 187.51 329.09 187.17C328.49 186.84 327.98 186.45 327.58 186.03C327.18 185.6 326.87 185.12 326.67 184.58C326.47 184.04 326.36 183.41 326.36 182.69C326.36 181.8 326.57 181.01 326.99 180.33C327.41 179.65 327.98 179.08 328.69 178.62C329.4 178.16 330.2 177.81 331.1 177.58C332 177.34 332.94 177.22 333.9 177.22C335.6 177.22 337.13 177.48 338.48 178L338.48 181.66C337.18 180.77 335.69 180.32 334.01 180.32C333.48 180.32 333 180.38 332.57 180.49C332.15 180.59 331.78 180.74 331.48 180.94C331.18 181.13 330.95 181.36 330.78 181.63C330.61 181.9 330.53 182.2 330.53 182.52C330.53 182.92 330.61 183.25 330.78 183.53C330.95 183.81 331.2 184.05 331.53 184.26C331.86 184.47 332.25 184.66 332.72 184.84C333.18 185.01 333.71 185.2 334.31 185.41C335.1 185.73 335.82 186.06 336.45 186.4C337.08 186.73 337.62 187.12 338.06 187.54C338.51 187.97 338.85 188.46 339.09 189.02C339.33 189.58 339.45 190.24 339.45 191.01C339.45 191.95 339.23 192.77 338.8 193.46C338.37 194.16 337.79 194.74 337.07 195.2C336.35 195.65 335.52 195.99 334.57 196.21C333.63 196.44 332.64 196.55 331.59 196.55C329.57 196.55 327.82 196.21 326.34 195.54ZM352.41 195.92C351.59 196.33 350.52 196.53 349.19 196.53C345.6 196.53 343.81 194.81 343.81 191.37L343.81 180.94L340.73 180.94L340.73 177.66L343.81 177.66L343.81 173.38L348 172.19L348 177.66L352.41 177.66L352.41 180.94L348 180.94L348 190.17C348 191.26 348.19 192.04 348.59 192.51C348.99 192.98 349.65 193.21 350.57 193.21C351.28 193.21 351.9 193.01 352.41 192.6L352.41 195.92ZM359.46 196.11L355.28 196.11L355.28 177.66L359.46 177.66L359.46 196.11ZM357.39 173.78C356.7 173.78 356.12 173.56 355.63 173.11C355.14 172.67 354.9 172.1 354.9 171.42C354.9 170.73 355.14 170.16 355.63 169.71C356.12 169.25 356.7 169.02 357.39 169.02C358.1 169.02 358.7 169.25 359.19 169.71C359.68 170.16 359.93 170.73 359.93 171.42C359.93 172.07 359.68 172.62 359.19 173.09C358.7 173.55 358.1 173.78 357.39 173.78ZM373.92 195.92C373.1 196.33 372.02 196.53 370.69 196.53C367.11 196.53 365.32 194.81 365.32 191.37L365.32 180.94L362.24 180.94L362.24 177.66L365.32 177.66L365.32 173.38L369.5 172.19L369.5 177.66L373.92 177.66L373.92 180.94L369.5 180.94L369.5 190.17C369.5 191.26 369.7 192.04 370.1 192.51C370.49 192.98 371.15 193.21 372.08 193.21C372.79 193.21 373.4 193.01 373.92 192.6L373.92 195.92ZM392.88 196.11L388.7 196.11L388.7 193.19L388.63 193.19C387.41 195.43 385.53 196.55 382.97 196.55C378.61 196.55 376.42 193.93 376.42 188.69L376.42 177.66L380.61 177.66L380.61 188.25C380.61 191.57 381.89 193.23 384.45 193.23C385.68 193.23 386.7 192.77 387.5 191.86C388.3 190.95 388.7 189.75 388.7 188.27L388.7 177.66L392.88 177.66L392.88 196.11ZM407.32 195.92C406.5 196.33 405.43 196.53 404.09 196.53C400.51 196.53 398.72 194.81 398.72 191.37L398.72 180.94L395.64 180.94L395.64 177.66L398.72 177.66L398.72 173.38L402.91 172.19L402.91 177.66L407.32 177.66L407.32 180.94L402.91 180.94L402.91 190.17C402.91 191.26 403.1 192.04 403.5 192.51C403.9 192.98 404.56 193.21 405.48 193.21C406.19 193.21 406.8 193.01 407.32 192.6L407.32 195.92Z" />
	<path id="Path 29" fill-rule="evenodd" class="shp0" d="M425.6 188.02L413.02 188.02C413.07 189.73 413.59 191.04 414.6 191.97C415.6 192.9 416.98 193.36 418.73 193.36C420.7 193.36 422.51 192.77 424.16 191.59L424.16 194.96C422.48 196.02 420.25 196.55 417.49 196.55C414.77 196.55 412.64 195.71 411.1 194.03C409.55 192.36 408.78 190 408.78 186.96C408.78 184.09 409.63 181.75 411.33 179.94C413.03 178.13 415.15 177.22 417.67 177.22C420.19 177.22 422.15 178.04 423.53 179.66C424.91 181.28 425.6 183.53 425.6 186.42L425.6 188.02ZM421.56 185.07C421.55 183.56 421.2 182.39 420.5 181.56C419.8 180.73 418.84 180.31 417.61 180.31C416.41 180.31 415.4 180.75 414.56 181.62C413.72 182.5 413.21 183.65 413.02 185.07L421.56 185.07ZM441.3 184.97C441.93 184.97 442.53 185.12 443.08 185.41C443.64 185.71 444.06 186.11 444.35 186.63C444.63 187.15 444.77 187.73 444.77 188.36C444.77 189.66 444.41 190.96 443.68 192.26C442.96 193.56 442 194.58 440.82 195.33C439.63 196.08 438.44 196.45 437.24 196.45C436.15 196.45 435.3 196.13 434.71 195.48C434.11 194.83 433.81 194.04 433.81 193.1C433.81 191.99 434.03 190.94 434.48 189.97C434.92 189 435.49 188.15 436.17 187.42C436.86 186.7 437.65 186.11 438.54 185.65C439.43 185.2 440.35 184.97 441.3 184.97ZM440.81 185.61C440.38 185.61 440.03 185.74 439.75 185.99C439.19 186.49 438.56 187.67 437.85 189.52C437.15 191.38 436.79 193.05 436.79 194.54C436.79 194.91 436.9 195.21 437.13 195.45C437.35 195.7 437.62 195.81 437.92 195.81C438.23 195.81 438.51 195.72 438.75 195.53C439.1 195.24 439.54 194.59 440.05 193.59C440.56 192.58 440.98 191.47 441.31 190.26C441.64 189.04 441.8 187.93 441.8 186.92C441.8 186.51 441.7 186.18 441.5 185.95C441.3 185.73 441.07 185.61 440.81 185.61ZM451.46 186.72L450.06 192.27C449.4 194.89 448.76 196.79 448.13 197.97C447.51 199.14 446.78 200.01 445.94 200.58C445.1 201.14 444.15 201.43 443.06 201.43C442.38 201.43 441.88 201.3 441.56 201.04C441.24 200.78 441.08 200.47 441.08 200.12C441.08 199.79 441.21 199.5 441.48 199.26C441.74 199.02 442.09 198.9 442.52 198.9C442.88 198.9 443.16 199 443.35 199.18C443.55 199.36 443.64 199.6 443.64 199.88C443.64 200.13 443.58 200.32 443.46 200.45C443.34 200.57 443.28 200.65 443.28 200.69L443.34 200.78C443.39 200.82 443.45 200.84 443.51 200.84C443.75 200.84 443.95 200.76 444.12 200.61C444.55 200.23 444.86 199.78 445.07 199.24C445.21 198.87 445.49 197.9 445.9 196.32L448.35 186.72L446.68 186.72L447.08 185.31C447.68 185.32 448.12 185.24 448.39 185.08C448.66 184.92 448.95 184.56 449.25 184C450.13 182.37 451.06 181.21 452.04 180.51C453.02 179.8 454.11 179.45 455.31 179.45C456.08 179.45 456.64 179.59 456.99 179.89C457.33 180.19 457.51 180.57 457.51 181.04C457.51 181.46 457.39 181.79 457.16 182.04C456.93 182.28 456.64 182.4 456.3 182.4C455.97 182.4 455.71 182.3 455.5 182.1C455.29 181.9 455.19 181.66 455.19 181.38C455.19 181.18 455.26 180.97 455.39 180.75C455.52 180.52 455.59 180.37 455.59 180.29C455.59 180.2 455.56 180.13 455.5 180.07C455.44 180.02 455.36 179.99 455.26 179.99C454.79 179.99 454.3 180.28 453.81 180.87C452.99 181.8 452.33 183.29 451.84 185.31L453.58 185.31L453.16 186.72L451.46 186.72ZM460.39 195.09L460.39 190.67C460.79 191.03 461.26 191.36 461.8 191.64C462.35 191.93 462.93 192.18 463.54 192.38C464.16 192.57 464.77 192.73 465.38 192.83C466 192.94 466.56 193 467.08 193C468.88 193 470.22 192.7 471.11 192.1C471.99 191.5 472.43 190.62 472.43 189.48C472.43 188.87 472.28 188.34 471.99 187.89C471.69 187.44 471.28 187.02 470.75 186.65C470.23 186.28 469.6 185.92 468.89 185.58C468.17 185.24 467.41 184.88 466.59 184.51C465.71 184.04 464.9 183.56 464.14 183.08C463.38 182.6 462.72 182.07 462.16 181.49C461.61 180.9 461.17 180.25 460.85 179.51C460.53 178.78 460.37 177.92 460.37 176.94C460.37 175.72 460.64 174.67 461.19 173.77C461.74 172.88 462.46 172.14 463.35 171.55C464.25 170.97 465.27 170.54 466.41 170.26C467.55 169.97 468.72 169.83 469.91 169.83C472.61 169.83 474.58 170.14 475.82 170.75L475.82 174.99C474.35 173.93 472.47 173.4 470.16 173.4C469.52 173.4 468.89 173.46 468.26 173.58C467.63 173.7 467.06 173.9 466.56 174.18C466.06 174.45 465.66 174.81 465.35 175.24C465.03 175.67 464.88 176.2 464.88 176.81C464.88 177.39 465 177.88 465.24 178.3C465.48 178.73 465.83 179.11 466.29 179.46C466.76 179.81 467.32 180.15 467.99 180.48C468.65 180.81 469.43 181.17 470.3 181.55C471.21 182.02 472.06 182.51 472.85 183.03C473.65 183.55 474.36 184.12 474.96 184.74C475.57 185.37 476.05 186.06 476.41 186.82C476.76 187.59 476.94 188.45 476.94 189.43C476.94 190.74 476.67 191.84 476.14 192.74C475.61 193.65 474.9 194.38 474.01 194.94C473.11 195.51 472.08 195.92 470.92 196.17C469.75 196.42 468.52 196.55 467.22 196.55C466.79 196.55 466.26 196.51 465.63 196.45C465 196.38 464.35 196.29 463.69 196.16C463.03 196.03 462.4 195.88 461.81 195.7C461.22 195.52 460.75 195.32 460.39 195.09ZM508.07 196.11L503.89 196.11L503.89 186.06C503.89 184.12 503.61 182.72 503.07 181.86C502.52 180.99 501.6 180.56 500.3 180.56C499.21 180.56 498.28 181.11 497.52 182.2C496.75 183.29 496.37 184.6 496.37 186.13L496.37 196.11L492.17 196.11L492.17 185.71C492.17 182.28 490.96 180.56 488.53 180.56C487.4 180.56 486.47 181.08 485.74 182.11C485.02 183.14 484.65 184.48 484.65 186.13L484.65 196.11L480.47 196.11L480.47 177.66L484.65 177.66L484.65 180.58L484.73 180.58C486.06 178.34 488 177.22 490.55 177.22C491.82 177.22 492.94 177.57 493.89 178.28C494.85 178.98 495.5 179.9 495.85 181.04C497.22 178.5 499.26 177.22 501.98 177.22C506.04 177.22 508.07 179.73 508.07 184.74L508.07 196.11ZM526.6 196.11L522.54 196.11L522.54 193.23L522.47 193.23C521.2 195.44 519.33 196.55 516.87 196.55C515.05 196.55 513.63 196.05 512.6 195.07C511.58 194.09 511.06 192.78 511.06 191.16C511.06 187.67 513.07 185.64 517.08 185.07L522.56 184.29C522.56 181.66 521.31 180.34 518.81 180.34C516.61 180.34 514.63 181.1 512.86 182.61L512.86 178.95C514.81 177.8 517.06 177.22 519.61 177.22C524.27 177.22 526.6 179.52 526.6 184.11L526.6 196.11ZM522.56 187.05L518.69 187.59C517.48 187.75 516.58 188.04 515.97 188.46C515.37 188.89 515.06 189.64 515.06 190.71C515.06 191.49 515.34 192.13 515.9 192.63C516.46 193.13 517.21 193.37 518.15 193.37C519.42 193.37 520.47 192.93 521.31 192.03C522.15 191.14 522.56 190.01 522.56 188.65L522.56 187.05ZM541.67 181.64C541.17 181.24 540.44 181.04 539.49 181.04C538.25 181.04 537.22 181.6 536.39 182.72C535.56 183.84 535.14 185.36 535.14 187.28L535.14 196.11L530.96 196.11L530.96 177.66L535.14 177.66L535.14 181.46L535.22 181.46C535.63 180.16 536.25 179.15 537.1 178.42C537.95 177.69 538.89 177.33 539.94 177.33C540.7 177.33 541.27 177.44 541.67 177.67L541.67 181.64ZM554.68 195.92C553.87 196.33 552.79 196.53 551.46 196.53C547.88 196.53 546.09 194.81 546.09 191.37L546.09 180.94L543 180.94L543 177.66L546.09 177.66L546.09 173.38L550.27 172.19L550.27 177.66L554.68 177.66L554.68 180.94L550.27 180.94L550.27 190.17C550.27 191.26 550.47 192.04 550.86 192.51C551.26 192.98 551.92 193.21 552.85 193.21C553.55 193.21 554.17 193.01 554.68 192.6L554.68 195.92ZM566.24 195.09L566.24 190.67C566.64 191.03 567.11 191.36 567.66 191.64C568.2 191.93 568.78 192.18 569.4 192.38C570.01 192.57 570.62 192.73 571.23 192.83C571.85 192.94 572.41 193 572.93 193C574.73 193 576.07 192.7 576.96 192.1C577.84 191.5 578.28 190.62 578.28 189.48C578.28 188.87 578.13 188.34 577.84 187.89C577.55 187.44 577.13 187.02 576.61 186.65C576.08 186.28 575.45 185.92 574.74 185.58C574.02 185.24 573.26 184.88 572.44 184.51C571.56 184.04 570.75 183.56 569.99 183.08C569.23 182.6 568.57 182.07 568.02 181.49C567.46 180.9 567.02 180.25 566.7 179.51C566.38 178.78 566.22 177.92 566.22 176.94C566.22 175.72 566.49 174.67 567.04 173.77C567.59 172.88 568.31 172.14 569.2 171.55C570.1 170.97 571.12 170.54 572.26 170.26C573.4 169.97 574.57 169.83 575.76 169.83C578.46 169.83 580.43 170.14 581.67 170.75L581.67 174.99C580.2 173.93 578.32 173.4 576.01 173.4C575.37 173.4 574.74 173.46 574.11 173.58C573.48 173.7 572.91 173.9 572.41 174.18C571.91 174.45 571.51 174.81 571.2 175.24C570.88 175.67 570.73 176.2 570.73 176.81C570.73 177.39 570.85 177.88 571.09 178.3C571.33 178.73 571.68 179.11 572.14 179.46C572.61 179.81 573.17 180.15 573.84 180.48C574.5 180.81 575.28 181.17 576.15 181.55C577.06 182.02 577.91 182.51 578.7 183.03C579.5 183.55 580.21 184.12 580.81 184.74C581.42 185.37 581.9 186.06 582.26 186.82C582.61 187.59 582.79 188.45 582.79 189.43C582.79 190.74 582.52 191.84 581.99 192.74C581.47 193.65 580.75 194.38 579.86 194.94C578.96 195.51 577.93 195.92 576.77 196.17C575.6 196.42 574.37 196.55 573.07 196.55C572.64 196.55 572.11 196.51 571.48 196.45C570.85 196.38 570.2 196.29 569.54 196.16C568.88 196.03 568.25 195.88 567.66 195.7C567.07 195.52 566.6 195.32 566.24 195.09ZM601.43 177.66L593.1 199.07C591.37 202.89 588.94 204.8 585.82 204.8C584.94 204.8 584.21 204.72 583.62 204.57L583.62 201.09C584.28 201.31 584.88 201.41 585.42 201.41C586.98 201.41 588.15 200.65 588.92 199.11L590.16 196.08L582.82 177.66L587.46 177.66L591.85 191.07C591.9 191.24 592.01 191.68 592.18 192.4L592.27 192.4C592.33 192.12 592.44 191.69 592.59 191.1L597.21 177.66L601.43 177.66ZM602.31 195.54L602.31 191.66C603.87 192.85 605.6 193.45 607.48 193.45C610.01 193.45 611.27 192.7 611.27 191.21C611.27 190.79 611.16 190.43 610.95 190.14C610.73 189.84 610.44 189.58 610.07 189.36C609.7 189.13 609.27 188.92 608.77 188.74C608.27 188.56 607.72 188.36 607.11 188.13C606.35 187.83 605.67 187.51 605.06 187.17C604.45 186.84 603.95 186.45 603.55 186.03C603.14 185.6 602.84 185.12 602.64 184.58C602.43 184.04 602.33 183.41 602.33 182.69C602.33 181.8 602.54 181.01 602.96 180.33C603.38 179.65 603.95 179.08 604.65 178.62C605.36 178.16 606.17 177.81 607.07 177.58C607.97 177.34 608.9 177.22 609.86 177.22C611.57 177.22 613.1 177.48 614.44 178L614.44 181.66C613.15 180.77 611.65 180.32 609.97 180.32C609.44 180.32 608.97 180.38 608.54 180.49C608.11 180.59 607.75 180.74 607.45 180.94C607.15 181.13 606.91 181.36 606.75 181.63C606.58 181.9 606.49 182.2 606.49 182.52C606.49 182.92 606.58 183.25 606.75 183.53C606.91 183.81 607.16 184.05 607.49 184.26C607.82 184.47 608.22 184.66 608.68 184.84C609.15 185.01 609.68 185.2 610.28 185.41C611.07 185.73 611.78 186.06 612.41 186.4C613.05 186.73 613.58 187.12 614.03 187.54C614.47 187.97 614.81 188.46 615.06 189.02C615.3 189.58 615.42 190.24 615.42 191.01C615.42 191.95 615.2 192.77 614.77 193.46C614.34 194.16 613.76 194.74 613.04 195.2C612.32 195.65 611.48 195.99 610.54 196.21C609.6 196.44 608.6 196.55 607.56 196.55C605.54 196.55 603.79 196.21 602.31 195.54ZM628.38 195.92C627.56 196.33 626.48 196.53 625.15 196.53C621.57 196.53 619.78 194.81 619.78 191.37L619.78 180.94L616.7 180.94L616.7 177.66L619.78 177.66L619.78 173.38L623.96 172.19L623.96 177.66L628.38 177.66L628.38 180.94L623.96 180.94L623.96 190.17C623.96 191.26 624.16 192.04 624.56 192.51C624.95 192.98 625.61 193.21 626.54 193.21C627.25 193.21 627.86 193.01 628.38 192.6L628.38 195.92ZM646.66 188.02L634.08 188.02C634.12 189.73 634.65 191.04 635.65 191.97C636.66 192.9 638.04 193.36 639.79 193.36C641.76 193.36 643.57 192.77 645.22 191.59L645.22 194.96C643.53 196.02 641.31 196.55 638.55 196.55C635.83 196.55 633.7 195.71 632.16 194.03C630.61 192.36 629.84 190 629.84 186.96C629.84 184.09 630.69 181.75 632.39 179.94C634.09 178.13 636.2 177.22 638.73 177.22C641.25 177.22 643.2 178.04 644.58 179.66C645.97 181.28 646.66 183.53 646.66 186.42L646.66 188.02ZM642.62 185.07C642.61 183.56 642.25 182.39 641.56 181.56C640.86 180.73 639.9 180.31 638.67 180.31C637.47 180.31 636.45 180.75 635.62 181.62C634.78 182.5 634.27 183.65 634.08 185.07L642.62 185.07ZM677.5 196.11L673.32 196.11L673.32 186.06C673.32 184.12 673.04 182.72 672.5 181.86C671.95 180.99 671.03 180.56 669.73 180.56C668.64 180.56 667.71 181.11 666.95 182.2C666.18 183.29 665.8 184.6 665.8 186.13L665.8 196.11L661.6 196.11L661.6 185.71C661.6 182.28 660.39 180.56 657.96 180.56C656.83 180.56 655.9 181.08 655.18 182.11C654.45 183.14 654.08 184.48 654.08 186.13L654.08 196.11L649.9 196.11L649.9 177.66L654.08 177.66L654.08 180.58L654.16 180.58C655.49 178.34 657.43 177.22 659.98 177.22C661.25 177.22 662.37 177.57 663.32 178.28C664.28 178.98 664.93 179.9 665.28 181.04C666.65 178.5 668.69 177.22 671.41 177.22C675.47 177.22 677.5 179.73 677.5 184.74L677.5 196.11ZM680.71 195.54L680.71 191.66C682.27 192.85 684 193.45 685.88 193.45C688.41 193.45 689.67 192.7 689.67 191.21C689.67 190.79 689.56 190.43 689.34 190.14C689.13 189.84 688.83 189.58 688.47 189.36C688.1 189.13 687.67 188.92 687.17 188.74C686.67 188.56 686.12 188.36 685.5 188.13C684.75 187.83 684.06 187.51 683.46 187.17C682.85 186.84 682.35 186.45 681.94 186.03C681.54 185.6 681.24 185.12 681.03 184.58C680.83 184.04 680.73 183.41 680.73 182.69C680.73 181.8 680.94 181.01 681.36 180.33C681.78 179.65 682.34 179.08 683.05 178.62C683.76 178.16 684.57 177.81 685.47 177.58C686.37 177.34 687.3 177.22 688.26 177.22C689.97 177.22 691.49 177.48 692.84 178L692.84 181.66C691.54 180.77 690.05 180.32 688.37 180.32C687.84 180.32 687.36 180.38 686.94 180.49C686.51 180.59 686.15 180.74 685.85 180.94C685.54 181.13 685.31 181.36 685.14 181.63C684.97 181.9 684.89 182.2 684.89 182.52C684.89 182.92 684.97 183.25 685.14 183.53C685.31 183.81 685.56 184.05 685.89 184.26C686.22 184.47 686.62 184.66 687.08 184.84C687.54 185.01 688.07 185.2 688.67 185.41C689.47 185.73 690.18 186.06 690.81 186.4C691.44 186.73 691.98 187.12 692.42 187.54C692.87 187.97 693.21 188.46 693.45 189.02C693.69 189.58 693.81 190.24 693.81 191.01C693.81 191.95 693.6 192.77 693.16 193.46C692.73 194.16 692.15 194.74 691.43 195.2C690.71 195.65 689.88 195.99 688.94 196.21C687.99 196.44 687 196.55 685.95 196.55C683.93 196.55 682.19 196.21 680.71 195.54ZM305.74 229.44L303.41 237.43L303.17 238.41C303.15 238.53 303.13 238.62 303.13 238.67C303.13 238.77 303.17 238.85 303.24 238.92C303.3 239 303.37 239.03 303.45 239.03C303.61 239.03 303.85 238.9 304.14 238.65C304.26 238.54 304.55 238.18 305.01 237.54L305.43 237.76C304.86 238.8 304.25 239.56 303.61 240.03C302.96 240.51 302.27 240.75 301.52 240.75C301.07 240.75 300.72 240.63 300.48 240.4C300.24 240.16 300.12 239.86 300.12 239.5C300.12 239.19 300.25 238.61 300.5 237.76L300.79 236.79C299.86 238.38 298.97 239.51 298.11 240.17C297.61 240.56 297.08 240.75 296.52 240.75C295.79 240.75 295.25 240.45 294.93 239.84C294.6 239.24 294.43 238.56 294.43 237.79C294.43 236.67 294.78 235.37 295.47 233.91C296.15 232.44 297.06 231.27 298.18 230.38C299.1 229.64 299.97 229.27 300.78 229.27C301.23 229.27 301.59 229.41 301.86 229.67C302.13 229.93 302.33 230.4 302.46 231.09L302.89 229.61L305.74 229.44ZM301.9 231.73C301.9 231.08 301.8 230.61 301.6 230.32C301.45 230.12 301.26 230.02 301.01 230.02C300.76 230.02 300.5 230.14 300.24 230.38C299.7 230.88 299.12 231.88 298.5 233.4C297.88 234.92 297.57 236.23 297.57 237.34C297.57 237.76 297.64 238.07 297.78 238.26C297.92 238.45 298.07 238.54 298.24 238.54C298.6 238.54 298.97 238.33 299.34 237.92C299.86 237.32 300.34 236.6 300.77 235.74C301.52 234.23 301.9 232.9 301.9 231.73ZM313.18 229.27L311.69 234.43C312.69 232.92 313.44 231.89 313.93 231.34C314.66 230.54 315.29 230 315.82 229.71C316.35 229.42 316.84 229.27 317.31 229.27C317.73 229.27 318.08 229.43 318.38 229.74C318.68 230.05 318.82 230.45 318.82 230.95C318.82 231.39 318.73 231.94 318.54 232.58L317 237.71C316.87 238.16 316.8 238.45 316.8 238.59C316.8 238.67 316.84 238.74 316.9 238.81C316.96 238.87 317.02 238.9 317.08 238.9C317.16 238.9 317.25 238.87 317.33 238.81C317.61 238.57 317.9 238.24 318.19 237.82C318.26 237.71 318.38 237.54 318.54 237.32L318.99 237.59C317.81 239.57 316.58 240.56 315.28 240.56C314.78 240.56 314.39 240.43 314.11 240.17C313.83 239.92 313.69 239.6 313.69 239.21C313.69 238.88 313.79 238.38 313.98 237.71L315.48 232.58C315.59 232.24 315.64 231.99 315.64 231.83C315.64 231.75 315.6 231.67 315.53 231.6C315.46 231.53 315.38 231.5 315.28 231.5C314.97 231.5 314.61 231.71 314.17 232.12C313.07 233.18 312 234.75 310.97 236.85L309.98 240.41L306.91 240.41L309.16 232.7C309.38 231.94 309.49 231.4 309.49 231.08C309.49 230.94 309.45 230.83 309.39 230.73C309.33 230.64 309.22 230.57 309.08 230.52C308.93 230.47 308.66 230.44 308.26 230.44L308.39 229.98L312.44 229.27L313.18 229.27Z" />
	<path id="Path 30" fill-rule="evenodd" class="shp0" d="M334.06 223.75L330.15 237.2C329.9 238.03 329.78 238.54 329.78 238.72C329.78 238.81 329.81 238.88 329.88 238.95C329.94 239.01 330.01 239.04 330.08 239.04C330.22 239.04 330.37 238.98 330.55 238.84C330.84 238.62 331.21 238.19 331.63 237.57L332.06 237.79C330.93 239.77 329.69 240.75 328.34 240.75C327.86 240.75 327.49 240.63 327.23 240.37C326.97 240.12 326.84 239.8 326.84 239.41C326.84 239.03 326.94 238.49 327.15 237.79L327.51 236.57C326.51 238.34 325.64 239.52 324.9 240.1C324.34 240.53 323.8 240.75 323.27 240.75C322.67 240.75 322.16 240.51 321.75 240.02C321.33 239.53 321.13 238.82 321.13 237.88C321.13 236.69 321.39 235.51 321.92 234.35C322.45 233.18 323.06 232.21 323.75 231.44C324.45 230.66 325.11 230.11 325.74 229.77C326.36 229.44 326.98 229.27 327.59 229.27C327.91 229.27 328.18 229.34 328.43 229.47C328.67 229.6 328.95 229.83 329.26 230.19L330.15 227.2C330.37 226.46 330.48 225.93 330.48 225.61C330.48 225.42 330.4 225.25 330.26 225.12C330.12 224.98 329.92 224.91 329.68 224.91C329.57 224.91 329.43 224.92 329.26 224.95L329.38 224.48L333.34 223.75L334.06 223.75ZM328.77 231.37C328.77 230.88 328.67 230.52 328.48 230.3C328.29 230.07 328.06 229.96 327.81 229.96C327.55 229.96 327.28 230.09 326.98 230.36C326.41 230.87 325.82 231.9 325.2 233.45C324.57 235 324.26 236.3 324.26 237.36C324.26 237.75 324.33 238.03 324.47 238.22C324.6 238.4 324.76 238.49 324.92 238.49C325.2 238.49 325.48 238.36 325.77 238.11C326.45 237.5 327.12 236.45 327.78 234.96C328.44 233.48 328.77 232.28 328.77 231.37ZM364.21 240.41L359.5 240.41L357.18 233.83L347.01 233.83L344.77 240.41L340.09 240.41L349.77 214.57L354.6 214.57L364.21 240.41ZM356.04 230.34L352.45 220.03C352.35 219.69 352.23 219.15 352.11 218.41L352.04 218.41C351.93 219.09 351.81 219.63 351.68 220.03L348.13 230.34L356.04 230.34ZM378.51 225.94C378.01 225.54 377.28 225.35 376.33 225.35C375.1 225.35 374.06 225.9 373.23 227.02C372.4 228.14 371.99 229.66 371.99 231.58L371.99 240.42L367.81 240.42L367.81 221.96L371.99 221.96L371.99 225.76L372.06 225.76C372.47 224.46 373.1 223.45 373.94 222.72C374.79 222 375.74 221.63 376.78 221.63C377.54 221.63 378.12 221.75 378.51 221.97L378.51 225.94ZM392.78 240.22C391.97 240.63 390.89 240.83 389.56 240.83C385.98 240.83 384.19 239.11 384.19 235.67L384.19 225.24L381.1 225.24L381.1 221.96L384.19 221.96L384.19 217.68L388.37 216.49L388.37 221.96L392.78 221.96L392.78 225.24L388.37 225.24L388.37 234.47C388.37 235.56 388.57 236.34 388.96 236.81C389.36 237.28 390.02 237.51 390.95 237.51C391.65 237.51 392.27 237.31 392.78 236.9L392.78 240.22ZM401.09 240.42L396.91 240.42L396.91 221.96L401.09 221.96L401.09 240.42ZM399.01 218.08C398.33 218.08 397.74 217.86 397.26 217.42C396.77 216.97 396.53 216.4 396.53 215.72C396.53 215.04 396.77 214.46 397.26 214.01C397.74 213.55 398.33 213.32 399.01 213.32C399.72 213.32 400.32 213.55 400.82 214.01C401.31 214.46 401.56 215.04 401.56 215.72C401.56 216.37 401.31 216.92 400.82 217.39C400.32 217.85 399.72 218.08 399.01 218.08ZM417.5 216.49C416.94 216.17 416.3 216.01 415.58 216.01C413.55 216.01 412.53 217.16 412.53 219.45L412.53 221.96L416.82 221.96L416.82 225.24L412.55 225.24L412.55 240.41L408.37 240.41L408.37 225.24L405.21 225.24L405.21 221.96L408.37 221.96L408.37 218.96C408.37 217.02 409 215.48 410.28 214.36C411.55 213.24 413.14 212.67 415.05 212.67C416.09 212.67 416.9 212.79 417.5 213.02L417.5 216.49ZM424.49 240.42L420.31 240.42L420.31 221.96L424.49 221.96L424.49 240.42ZM422.42 218.08C421.73 218.08 421.15 217.86 420.66 217.42C420.17 216.97 419.93 216.4 419.93 215.72C419.93 215.04 420.17 214.46 420.66 214.01C421.15 213.55 421.73 213.32 422.42 213.32C423.13 213.32 423.73 213.55 424.22 214.01C424.71 214.46 424.96 215.04 424.96 215.72C424.96 216.37 424.71 216.92 424.22 217.39C423.73 217.85 423.13 218.08 422.42 218.08ZM443.68 239.57C442.2 240.42 440.45 240.85 438.44 240.85C435.7 240.85 433.48 239.99 431.8 238.28C430.12 236.57 429.28 234.35 429.28 231.62C429.28 228.58 430.18 226.14 431.99 224.29C433.8 222.45 436.22 221.52 439.25 221.52C440.93 221.52 442.41 221.82 443.7 222.41L443.7 226.3C442.41 225.34 441.04 224.86 439.59 224.86C437.82 224.86 436.37 225.46 435.25 226.65C434.12 227.85 433.55 229.41 433.55 231.35C433.55 233.26 434.08 234.77 435.15 235.87C436.21 236.98 437.64 237.53 439.43 237.53C440.93 237.53 442.35 237 443.68 235.93L443.68 239.57ZM452.53 240.42L448.35 240.42L448.35 221.96L452.53 221.96L452.53 240.42ZM450.45 218.08C449.77 218.08 449.18 217.86 448.7 217.42C448.21 216.97 447.97 216.4 447.97 215.72C447.97 215.04 448.21 214.46 448.7 214.01C449.18 213.55 449.77 213.32 450.45 213.32C451.16 213.32 451.76 213.55 452.26 214.01C452.75 214.46 453 215.04 453 215.72C453 216.37 452.75 216.92 452.26 217.39C451.76 217.85 451.16 218.08 450.45 218.08ZM472.67 240.41L468.62 240.41L468.62 237.53L468.55 237.53C467.27 239.74 465.4 240.85 462.94 240.85C461.13 240.85 459.71 240.35 458.68 239.37C457.65 238.39 457.14 237.08 457.14 235.46C457.14 231.97 459.14 229.94 463.16 229.37L468.64 228.59C468.64 225.96 467.39 224.64 464.89 224.64C462.69 224.64 460.71 225.4 458.94 226.91L458.94 223.25C460.89 222.1 463.13 221.52 465.68 221.52C470.34 221.52 472.67 223.82 472.67 228.41L472.67 240.41ZM468.64 231.35L464.76 231.89C463.56 232.05 462.66 232.34 462.05 232.76C461.44 233.19 461.14 233.94 461.14 235.01C461.14 235.79 461.42 236.43 461.98 236.93C462.53 237.43 463.28 237.67 464.22 237.67C465.49 237.67 466.55 237.23 467.38 236.33C468.22 235.44 468.64 234.31 468.64 232.95L468.64 231.35ZM482.49 240.42L478.29 240.42L478.29 213.09L482.49 213.09L482.49 240.42ZM503.98 240.42L499.57 240.42L499.57 214.57L503.98 214.57L503.98 240.42ZM526.83 240.42L522.65 240.42L522.65 230.02C522.65 226.57 521.43 224.84 518.99 224.84C517.72 224.84 516.67 225.32 515.84 226.28C515.01 227.23 514.6 228.44 514.6 229.89L514.6 240.42L510.39 240.42L510.39 221.96L514.6 221.96L514.6 225.02L514.67 225.02C516.05 222.69 518.04 221.52 520.65 221.52C522.66 221.52 524.19 222.18 525.25 223.48C526.31 224.79 526.83 226.67 526.83 229.13L526.83 240.42ZM542.19 240.22C541.37 240.63 540.29 240.83 538.96 240.83C535.38 240.83 533.59 239.11 533.59 235.67L533.59 225.24L530.51 225.24L530.51 221.96L533.59 221.96L533.59 217.68L537.77 216.49L537.77 221.96L542.19 221.96L542.19 225.24L537.77 225.24L537.77 234.47C537.77 235.56 537.97 236.34 538.37 236.81C538.76 237.28 539.42 237.51 540.35 237.51C541.06 237.51 541.67 237.31 542.19 236.9L542.19 240.22ZM561.72 232.32L549.14 232.32C549.19 234.03 549.71 235.34 550.72 236.27C551.72 237.2 553.1 237.66 554.85 237.66C556.82 237.66 558.63 237.07 560.28 235.89L560.28 239.26C558.6 240.32 556.37 240.85 553.61 240.85C550.89 240.85 548.76 240.01 547.22 238.33C545.68 236.66 544.9 234.3 544.9 231.26C544.9 228.39 545.75 226.05 547.46 224.24C549.16 222.43 551.27 221.52 553.79 221.52C556.31 221.52 558.27 222.34 559.65 223.96C561.03 225.58 561.72 227.83 561.72 230.72L561.72 232.32ZM557.68 229.37C557.67 227.86 557.32 226.69 556.62 225.86C555.92 225.03 554.96 224.61 553.74 224.61C552.54 224.61 551.52 225.05 550.68 225.92C549.85 226.8 549.33 227.95 549.14 229.37L557.68 229.37ZM570.42 240.42L566.22 240.42L566.22 213.09L570.42 213.09L570.42 240.42ZM580.58 240.42L576.38 240.42L576.38 213.09L580.58 213.09L580.58 240.42ZM590.73 240.42L586.54 240.42L586.54 221.96L590.73 221.96L590.73 240.42ZM588.65 218.08C587.97 218.08 587.38 217.86 586.9 217.42C586.41 216.97 586.17 216.4 586.17 215.72C586.17 215.04 586.41 214.46 586.9 214.01C587.38 213.55 587.97 213.32 588.65 213.32C589.36 213.32 589.96 213.55 590.46 214.01C590.95 214.46 591.19 215.04 591.19 215.72C591.19 216.37 590.95 216.92 590.46 217.39C589.96 217.85 589.36 218.08 588.65 218.08ZM613.5 238.94C613.5 245.71 610.1 249.1 603.28 249.1C600.88 249.1 598.78 248.7 596.99 247.9L596.99 244.08C599.01 245.23 600.93 245.81 602.74 245.81C607.13 245.81 609.32 243.65 609.32 239.34L609.32 237.32L609.25 237.32C607.87 239.67 605.79 240.85 603.01 240.85C600.77 240.85 598.96 240.03 597.58 238.39C596.2 236.75 595.52 234.55 595.52 231.78C595.52 228.64 596.25 226.15 597.73 224.3C599.21 222.45 601.24 221.52 603.83 221.52C606.26 221.52 608.07 222.52 609.25 224.52L609.32 224.52L609.32 221.96L613.5 221.96L613.5 238.94ZM609.36 231.96L609.36 229.57C609.36 228.27 608.93 227.16 608.07 226.24C607.21 225.32 606.14 224.86 604.85 224.86C603.27 224.86 602.03 225.45 601.13 226.62C600.24 227.79 599.79 229.43 599.79 231.53C599.79 233.34 600.22 234.8 601.08 235.88C601.94 236.97 603.07 237.51 604.49 237.51C605.93 237.51 607.11 236.99 608.01 235.96C608.91 234.92 609.36 233.59 609.36 231.96ZM635.09 232.32L622.51 232.32C622.56 234.03 623.09 235.34 624.09 236.27C625.09 237.2 626.47 237.66 628.22 237.66C630.2 237.66 632 237.07 633.65 235.89L633.65 239.26C631.97 240.32 629.75 240.85 626.98 240.85C624.27 240.85 622.14 240.01 620.59 238.33C619.05 236.66 618.27 234.3 618.27 231.26C618.27 228.39 619.13 226.05 620.83 224.24C622.53 222.43 624.64 221.52 627.16 221.52C629.69 221.52 631.64 222.34 633.02 223.96C634.4 225.58 635.09 227.83 635.09 230.72L635.09 232.32ZM631.06 229.37C631.04 227.86 630.69 226.69 629.99 225.86C629.3 225.03 628.33 224.61 627.11 224.61C625.91 224.61 624.89 225.05 624.05 225.92C623.22 226.8 622.7 227.95 622.51 229.37L631.06 229.37ZM656.03 240.42L651.85 240.42L651.85 230.02C651.85 226.57 650.63 224.84 648.19 224.84C646.92 224.84 645.87 225.32 645.04 226.28C644.21 227.23 643.79 228.44 643.79 229.89L643.79 240.42L639.59 240.42L639.59 221.96L643.79 221.96L643.79 225.02L643.87 225.02C645.25 222.69 647.24 221.52 649.85 221.52C651.86 221.52 653.39 222.18 654.45 223.48C655.5 224.79 656.03 226.67 656.03 229.13L656.03 240.42ZM674.86 239.57C673.39 240.42 671.64 240.85 669.62 240.85C666.88 240.85 664.67 239.99 662.99 238.28C661.3 236.57 660.46 234.35 660.46 231.62C660.46 228.58 661.36 226.14 663.17 224.29C664.98 222.45 667.4 221.52 670.43 221.52C672.11 221.52 673.6 221.82 674.88 222.41L674.88 226.3C673.6 225.34 672.23 224.86 670.77 224.86C669.01 224.86 667.56 225.46 666.43 226.65C665.3 227.85 664.73 229.41 664.73 231.35C664.73 233.26 665.27 234.77 666.33 235.87C667.39 236.98 668.82 237.53 670.61 237.53C672.11 237.53 673.53 237 674.86 235.93L674.86 239.57ZM695.16 232.32L682.57 232.32C682.62 234.03 683.15 235.34 684.15 236.27C685.15 237.2 686.53 237.66 688.29 237.66C690.26 237.66 692.07 237.07 693.71 235.89L693.71 239.26C692.03 240.32 689.81 240.85 687.04 240.85C684.33 240.85 682.2 240.01 680.65 238.33C679.11 236.66 678.34 234.3 678.34 231.26C678.34 228.39 679.19 226.05 680.89 224.24C682.59 222.43 684.7 221.52 687.22 221.52C689.75 221.52 691.7 222.34 693.08 223.96C694.46 225.58 695.16 227.83 695.16 230.72L695.16 232.32ZM691.12 229.37C691.11 227.86 690.75 226.69 690.05 225.86C689.36 225.03 688.4 224.61 687.17 224.61C685.97 224.61 684.95 225.05 684.12 225.92C683.28 226.8 682.77 227.95 682.57 229.37L691.12 229.37ZM269.38 249.75L265.49 249.75L265.49 160.64L269.38 160.64L269.38 249.75ZM6.13 177.9L12.61 177.9L27.23 195.83L27.23 182.05C27.23 180.58 27.06 179.66 26.73 179.3C26.3 178.8 25.61 178.55 24.67 178.55L23.84 178.55L23.84 177.9L32.16 177.9L32.16 178.55L31.32 178.55C30.3 178.55 29.59 178.86 29.17 179.47C28.91 179.85 28.78 180.7 28.78 182.05L28.78 202.19L28.14 202.19L12.39 182.94L12.39 197.66C12.39 199.13 12.55 200.05 12.86 200.41C13.31 200.9 14 201.15 14.92 201.15L15.77 201.15L15.77 201.8L7.45 201.8L7.45 201.15L8.28 201.15C9.3 201.15 10.02 200.85 10.45 200.23C10.71 199.86 10.84 199 10.84 197.66L10.84 181.04C10.14 180.23 9.62 179.69 9.26 179.44C8.9 179.18 8.37 178.94 7.68 178.71C7.34 178.61 6.82 178.55 6.13 178.55L6.13 177.9Z" />
	<path id="Path 31" fill-rule="evenodd" class="shp0" d="M47.74 193.8L38.49 193.8L36.87 197.57C36.47 198.5 36.27 199.19 36.27 199.65C36.27 200.02 36.44 200.34 36.79 200.61C37.13 200.89 37.88 201.07 39.04 201.15L39.04 201.8L31.51 201.8L31.51 201.15C32.51 200.97 33.16 200.74 33.45 200.46C34.05 199.9 34.71 198.75 35.44 197.03L43.85 177.36L44.46 177.36L52.78 197.24C53.45 198.83 54.06 199.87 54.61 200.35C55.05 200.73 55.63 200.98 56.35 201.09L71.64 179.33L64 179.33C62.73 179.33 61.81 179.47 61.24 179.75C60.67 180.02 60.23 180.42 59.93 180.94C59.63 181.47 59.36 182.44 59.11 183.88L58.44 183.88L58.94 177.9L76.61 177.9L60.91 200.36L70.71 200.36C72.21 200.36 73.37 200.03 74.17 199.37C74.98 198.71 75.69 197.38 76.32 195.37L76.9 195.48L75.77 201.8L56.89 201.8L56.89 201.8L47.46 201.8L47.46 201.15C48.41 201.1 49.06 200.94 49.39 200.67C49.72 200.4 49.89 200.07 49.89 199.69C49.89 199.17 49.66 198.35 49.19 197.24L47.74 193.8ZM47.25 192.5L43.2 182.84L39.04 192.5L47.25 192.5Z" />
	<path id="Path 32" fill-rule="evenodd" class="shp0" d="M92.97 193.8L83.72 193.8L82.1 197.57C81.7 198.5 81.5 199.19 81.5 199.65C81.5 200.02 81.67 200.34 82.02 200.61C82.36 200.89 83.11 201.07 84.27 201.15L84.27 201.8L76.74 201.8L76.74 201.15C77.74 200.97 78.38 200.74 78.68 200.46C79.28 199.9 79.94 198.75 80.67 197.03L89.08 177.36L89.69 177.36L98.01 197.24C98.68 198.83 99.29 199.87 99.84 200.35C100.38 200.82 101.14 201.09 102.12 201.15L102.12 201.8L92.69 201.8L92.69 201.15C93.64 201.1 94.29 200.94 94.62 200.67C94.95 200.4 95.12 200.07 95.12 199.69C95.12 199.17 94.89 198.35 94.42 197.24L92.97 193.8ZM92.48 192.5L88.43 182.84L84.27 192.5L92.48 192.5Z" />
	<path id="Path 33" fill-rule="evenodd" class="shp0" d="M125.47 201.8L119.09 201.8L111 190.63C110.4 190.65 109.92 190.66 109.54 190.66C109.39 190.66 109.22 190.66 109.05 190.65C108.87 190.65 108.69 190.64 108.5 190.63L108.5 197.57C108.5 199.07 108.67 200.01 108.99 200.37C109.44 200.89 110.11 201.15 111 201.15L111.94 201.15L111.94 201.8L101.7 201.8L101.7 201.15L102.6 201.15C103.61 201.15 104.33 200.82 104.77 200.16C105.01 199.8 105.14 198.93 105.14 197.57L105.14 182.13C105.14 180.63 104.97 179.69 104.64 179.33C104.18 178.81 103.5 178.55 102.6 178.55L101.7 178.55L101.7 177.9L110.4 177.9C112.94 177.9 114.81 178.09 116.02 178.46C117.22 178.83 118.24 179.51 119.08 180.5C119.93 181.49 120.34 182.68 120.34 184.05C120.34 185.52 119.87 186.8 118.91 187.88C117.95 188.96 116.47 189.72 114.46 190.17L119.39 197.02C120.52 198.6 121.49 199.64 122.3 200.16C123.11 200.68 124.17 201.01 125.47 201.15L125.47 201.8ZM108.5 189.52C108.72 189.52 108.92 189.52 109.08 189.53C109.25 189.53 109.38 189.53 109.49 189.53C111.77 189.53 113.49 189.04 114.64 188.05C115.8 187.07 116.38 185.81 116.38 184.28C116.38 182.79 115.91 181.58 114.98 180.64C114.04 179.71 112.81 179.24 111.27 179.24C110.59 179.24 109.66 179.35 108.5 179.58L108.5 189.52Z" />
	<path id="Path 34" fill-rule="evenodd" class="shp0" d="M140.39 189.6C142.04 189.96 143.28 190.52 144.1 191.3C145.24 192.38 145.81 193.7 145.81 195.26C145.81 196.45 145.44 197.59 144.69 198.67C143.93 199.76 142.9 200.55 141.59 201.05C140.28 201.55 138.28 201.8 135.59 201.8L124.31 201.8L124.31 201.15L125.21 201.15C126.21 201.15 126.93 200.83 127.36 200.2C127.63 199.79 127.77 198.91 127.77 197.57L127.77 182.13C127.77 180.65 127.6 179.72 127.26 179.33C126.8 178.81 126.11 178.55 125.21 178.55L124.31 178.55L124.31 177.9L134.64 177.9C136.57 177.9 138.11 178.04 139.27 178.32C141.04 178.75 142.38 179.5 143.31 180.57C144.24 181.65 144.7 182.88 144.7 184.28C144.7 185.48 144.34 186.55 143.61 187.5C142.88 188.45 141.81 189.15 140.39 189.6ZM131.15 188.65C131.58 188.74 132.08 188.8 132.64 188.84C133.2 188.88 133.81 188.9 134.48 188.9C136.2 188.9 137.49 188.71 138.35 188.34C139.21 187.97 139.87 187.41 140.33 186.64C140.79 185.88 141.02 185.05 141.02 184.14C141.02 182.74 140.45 181.55 139.31 180.56C138.17 179.58 136.51 179.08 134.32 179.08C133.15 179.08 132.09 179.21 131.15 179.47L131.15 188.65ZM131.15 200.07C132.51 200.39 133.86 200.55 135.19 200.55C137.31 200.55 138.93 200.07 140.05 199.11C141.17 198.16 141.73 196.97 141.73 195.56C141.73 194.63 141.47 193.74 140.97 192.88C140.46 192.03 139.64 191.35 138.5 190.86C137.36 190.36 135.95 190.12 134.27 190.12C133.54 190.12 132.92 190.13 132.4 190.15C131.88 190.17 131.47 190.22 131.15 190.28L131.15 200.07ZM162.86 193.8L153.6 193.8L151.98 197.57C151.58 198.5 151.38 199.19 151.38 199.65C151.38 200.02 151.56 200.34 151.9 200.61C152.25 200.89 153 201.07 154.15 201.15L154.15 201.8L146.62 201.8L146.62 201.15C147.62 200.97 148.27 200.74 148.56 200.46C149.16 199.9 149.83 198.75 150.56 197.03L158.96 177.36L159.58 177.36L167.9 197.24C168.57 198.83 169.18 199.87 169.72 200.35C170.27 200.82 171.03 201.09 172 201.15L172 201.8L162.58 201.8L162.58 201.15C163.53 201.1 164.17 200.94 164.51 200.67C164.84 200.4 165.01 200.07 165.01 199.69C165.01 199.17 164.77 198.35 164.3 197.24L162.86 193.8ZM162.36 192.5L158.31 182.84L154.15 192.5L162.36 192.5ZM184.86 177.9L193.19 177.9L193.19 177.9L211.44 177.9L211.7 183.14L211.01 183.14C210.77 181.88 210.49 181.02 210.19 180.55C209.89 180.08 209.45 179.72 208.86 179.47C208.39 179.29 207.56 179.21 206.38 179.21L199.82 179.21L199.82 188.65L205.07 188.65C206.44 188.65 207.35 188.45 207.81 188.04C208.42 187.5 208.76 186.54 208.83 185.18L209.48 185.18L209.48 193.5L208.83 193.5C208.66 192.34 208.5 191.59 208.33 191.26C208.12 190.85 207.78 190.53 207.29 190.29C206.81 190.06 206.07 189.94 205.07 189.94L199.82 189.94L199.82 197.82C199.82 198.87 199.87 199.52 199.96 199.75C200.06 199.98 200.22 200.16 200.46 200.3C200.69 200.43 201.14 200.5 201.79 200.5L205.85 200.5C207.2 200.5 208.18 200.4 208.79 200.22C209.4 200.03 209.99 199.66 210.55 199.1C211.28 198.38 212.03 197.28 212.79 195.81L213.5 195.81L211.44 201.8L193.02 201.8L193.02 201.15L193.86 201.15C194.43 201.15 194.96 201.02 195.47 200.74C195.84 200.56 196.1 200.27 196.23 199.9C196.37 199.52 196.44 198.75 196.44 197.59L196.44 182.06C196.44 180.55 196.28 179.61 195.98 179.26C195.56 178.79 194.85 178.55 193.86 178.55L193.02 178.55L193.02 178.55L192.74 178.55C192.43 178.55 191.98 178.69 191.4 178.96C190.81 179.23 190.27 179.62 189.79 180.12C189.31 180.63 188.72 181.45 188.01 182.59L182.25 191.67L182.25 197.66C182.25 199.13 182.41 200.05 182.74 200.41C183.19 200.9 183.89 201.15 184.86 201.15L185.63 201.15L185.63 201.8L175.48 201.8L175.48 201.15L176.33 201.15C177.34 201.15 178.05 200.85 178.48 200.23C178.73 199.86 178.86 199 178.86 197.66L178.86 192L172.31 181.99C171.53 180.82 171.01 180.08 170.73 179.79C170.45 179.49 169.88 179.14 169.01 178.73C168.78 178.61 168.44 178.55 167.99 178.55L167.99 177.9L178.21 177.9L178.21 178.55L177.68 178.55C177.13 178.55 176.62 178.69 176.16 178.94C175.69 179.2 175.46 179.59 175.46 180.11C175.46 180.53 175.82 181.29 176.54 182.4L181.52 190.1L186.21 182.73C186.92 181.63 187.27 180.81 187.27 180.27C187.27 179.94 187.19 179.64 187.01 179.38C186.84 179.12 186.6 178.92 186.28 178.78C185.97 178.63 185.49 178.55 184.86 178.55L184.86 177.9ZM238.51 177.9L238.51 178.55C237.66 178.71 237.02 178.98 236.59 179.37C235.96 179.94 235.41 180.82 234.93 182.01L226.59 202.35L225.94 202.35L216.99 181.74C216.53 180.69 216.21 180.04 216.02 179.81C215.72 179.44 215.36 179.16 214.94 178.95C214.51 178.75 213.93 178.61 213.2 178.55L213.2 177.9L222.96 177.9L222.96 178.55C221.86 178.66 221.14 178.85 220.81 179.12C220.48 179.39 220.32 179.74 220.32 180.16C220.32 180.75 220.59 181.66 221.13 182.91L227.21 196.92L232.85 183.08C233.4 181.72 233.68 180.78 233.68 180.25C233.68 179.91 233.51 179.58 233.17 179.27C232.83 178.96 232.25 178.74 231.44 178.61C231.38 178.6 231.28 178.58 231.14 178.55L231.14 177.9L238.51 177.9ZM23.56 217.5L23.56 216.86L31.89 216.86L31.89 217.5L31.01 217.5C30.08 217.5 29.37 217.89 28.87 218.67C28.63 219.02 28.51 219.86 28.51 221.16L28.51 230.71C28.51 233.07 28.28 234.9 27.81 236.2C27.34 237.5 26.42 238.62 25.05 239.55C23.68 240.48 21.81 240.95 19.45 240.95C16.88 240.95 14.93 240.5 13.6 239.61C12.27 238.72 11.33 237.52 10.77 236.02C10.4 234.99 10.22 233.06 10.22 230.22L10.22 221.02C10.22 219.58 10.02 218.63 9.62 218.18C9.22 217.73 8.57 217.5 7.68 217.5L6.8 217.5L6.8 216.86L16.97 216.86L16.97 217.5L16.07 217.5C15.1 217.5 14.4 217.81 13.98 218.42C13.69 218.84 13.55 219.71 13.55 221.02L13.55 231.28C13.55 232.19 13.63 233.24 13.8 234.42C13.97 235.6 14.27 236.52 14.71 237.18C15.15 237.84 15.79 238.38 16.61 238.81C17.44 239.24 18.46 239.45 19.66 239.45C21.2 239.45 22.57 239.12 23.79 238.45C25 237.78 25.84 236.92 26.28 235.87C26.73 234.82 26.95 233.05 26.95 230.55L26.95 221.02C26.95 219.56 26.79 218.64 26.46 218.26C26.01 217.75 25.34 217.5 24.45 217.5L23.56 217.5ZM33.94 216.86L40.32 216.86L54.71 234.51L54.71 220.94C54.71 219.49 54.55 218.59 54.23 218.23C53.8 217.74 53.12 217.5 52.2 217.5L51.38 217.5L51.38 216.86L59.57 216.86L59.57 217.5L58.74 217.5C57.74 217.5 57.04 217.8 56.62 218.4C56.37 218.77 56.24 219.62 56.24 220.94L56.24 240.77L55.61 240.77L40.1 221.82L40.1 236.31C40.1 237.76 40.26 238.66 40.57 239.02C41.01 239.51 41.68 239.75 42.6 239.75L43.43 239.75L43.43 240.39L35.24 240.39L35.24 239.75L36.06 239.75C37.06 239.75 37.77 239.45 38.19 238.85C38.45 238.48 38.57 237.63 38.57 236.31L38.57 219.95C37.89 219.15 37.37 218.62 37.02 218.37C36.67 218.11 36.15 217.88 35.47 217.66C35.13 217.55 34.62 217.5 33.94 217.5L33.94 216.86ZM73.17 239.75L73.17 240.39L63.09 240.39L63.09 239.75L63.92 239.75C64.9 239.75 65.6 239.46 66.04 238.9C66.32 238.53 66.46 237.64 66.46 236.22L66.46 221.02C66.46 219.83 66.38 219.04 66.23 218.66C66.12 218.37 65.88 218.12 65.52 217.92C65.01 217.64 64.48 217.5 63.92 217.5L63.09 217.5L63.09 216.86L73.17 216.86L73.17 217.5L72.32 217.5C71.36 217.5 70.66 217.78 70.22 218.35C69.93 218.72 69.79 219.61 69.79 221.02L69.79 236.22C69.79 237.42 69.87 238.2 70.01 238.59C70.13 238.87 70.37 239.12 70.74 239.33C71.24 239.61 71.77 239.75 72.32 239.75L73.17 239.75ZM101.41 216.86L101.41 217.5C100.57 217.65 99.95 217.92 99.52 218.3C98.9 218.86 98.36 219.73 97.89 220.9L89.68 240.93L89.03 240.93L80.22 220.64C79.77 219.6 79.45 218.96 79.26 218.73C78.97 218.37 78.62 218.09 78.2 217.89C77.78 217.69 77.2 217.56 76.49 217.5L76.49 216.86L86.1 216.86L86.1 217.5C85.01 217.61 84.31 217.79 83.98 218.06C83.66 218.32 83.5 218.66 83.5 219.08C83.5 219.66 83.76 220.56 84.3 221.79L90.28 235.58L95.84 221.96C96.38 220.62 96.65 219.69 96.65 219.17C96.65 218.83 96.49 218.51 96.15 218.2C95.81 217.9 95.25 217.68 94.45 217.55C94.39 217.54 94.29 217.52 94.16 217.5L94.16 216.86L101.41 216.86ZM111.4 218.14L111.4 227.44L116.57 227.44C117.92 227.44 118.81 227.24 119.26 226.84C119.86 226.31 120.2 225.37 120.27 224.03L120.91 224.03L120.91 232.22L120.27 232.22C120.11 231.07 119.95 230.34 119.78 230.01C119.57 229.61 119.24 229.29 118.76 229.06C118.29 228.83 117.56 228.71 116.57 228.71L111.4 228.71L111.4 236.47C111.4 237.51 111.45 238.14 111.54 238.37C111.63 238.6 111.8 238.77 112.03 238.91C112.26 239.04 112.7 239.11 113.35 239.11L117.34 239.11C118.67 239.11 119.63 239.01 120.24 238.83C120.84 238.64 121.41 238.28 121.97 237.73C122.69 237.02 123.42 235.94 124.17 234.49L124.87 234.49L122.84 240.39L104.7 240.39L104.7 239.75L105.54 239.75C106.09 239.75 106.62 239.62 107.12 239.35C107.49 239.16 107.74 238.89 107.87 238.52C108 238.14 108.07 237.39 108.07 236.24L108.07 220.95C108.07 219.46 107.92 218.54 107.62 218.19C107.2 217.73 106.51 217.5 105.54 217.5L104.7 217.5L104.7 216.86L122.84 216.86L123.1 222.01L122.42 222.01C122.18 220.77 121.91 219.92 121.62 219.46C121.32 219 120.88 218.65 120.3 218.4C119.84 218.23 119.03 218.14 117.86 218.14L111.4 218.14Z" />
	<path id="Path 35" fill-rule="evenodd" class="shp0" d="M151.83 240.39L145.55 240.39L137.59 229.39C136.99 229.41 136.51 229.42 136.15 229.42C135.99 229.42 135.83 229.42 135.66 229.41C135.49 229.41 135.31 229.4 135.12 229.39L135.12 236.22C135.12 237.7 135.28 238.62 135.61 238.98C136.05 239.49 136.7 239.75 137.59 239.75L138.51 239.75L138.51 240.39L128.42 240.39L128.42 239.75L129.31 239.75C130.3 239.75 131.01 239.42 131.44 238.78C131.69 238.42 131.81 237.57 131.81 236.22L131.81 221.02C131.81 219.54 131.64 218.62 131.32 218.26C130.87 217.75 130.2 217.5 129.31 217.5L128.42 217.5L128.42 216.86L136.99 216.86C139.49 216.86 141.34 217.04 142.52 217.4C143.71 217.77 144.71 218.44 145.54 219.42C146.37 220.39 146.78 221.56 146.78 222.91C146.78 224.36 146.31 225.62 145.37 226.68C144.43 227.74 142.97 228.5 140.99 228.93L145.85 235.69C146.96 237.24 147.91 238.27 148.71 238.78C149.51 239.29 150.55 239.61 151.83 239.75L151.83 240.39ZM135.12 228.29C135.34 228.29 135.53 228.3 135.69 228.3C135.86 228.31 135.99 228.31 136.09 228.31C138.34 228.31 140.03 227.82 141.17 226.85C142.31 225.88 142.88 224.64 142.88 223.14C142.88 221.67 142.42 220.48 141.5 219.56C140.58 218.64 139.36 218.18 137.85 218.18C137.18 218.18 136.27 218.29 135.12 218.5L135.12 228.29ZM169.95 216.32L169.95 224.46L169.31 224.46C169.1 222.9 168.73 221.65 168.19 220.73C167.65 219.8 166.88 219.07 165.89 218.52C164.89 217.98 163.86 217.71 162.8 217.71C161.6 217.71 160.6 218.07 159.82 218.81C159.03 219.54 158.63 220.38 158.63 221.32C158.63 222.03 158.88 222.69 159.38 223.28C160.1 224.15 161.8 225.3 164.5 226.75C166.7 227.93 168.2 228.84 169 229.47C169.81 230.1 170.43 230.84 170.86 231.69C171.29 232.55 171.51 233.45 171.51 234.39C171.51 236.17 170.82 237.7 169.44 238.99C168.05 240.28 166.27 240.93 164.1 240.93C163.42 240.93 162.78 240.87 162.17 240.77C161.82 240.71 161.07 240.5 159.94 240.14C158.82 239.77 158.1 239.59 157.8 239.59C157.51 239.59 157.28 239.68 157.11 239.85C156.95 240.03 156.82 240.38 156.74 240.93L156.1 240.93L156.1 232.86L156.74 232.86C157.04 234.55 157.45 235.81 157.96 236.65C158.47 237.49 159.24 238.19 160.29 238.74C161.34 239.3 162.49 239.57 163.74 239.57C165.18 239.57 166.32 239.19 167.16 238.43C168 237.67 168.42 236.76 168.42 235.72C168.42 235.14 168.26 234.56 167.94 233.97C167.63 233.38 167.13 232.83 166.46 232.32C166.01 231.97 164.78 231.24 162.77 230.11C160.75 228.98 159.32 228.08 158.47 227.41C157.62 226.74 156.97 226 156.53 225.19C156.09 224.38 155.87 223.49 155.87 222.52C155.87 220.83 156.52 219.37 157.82 218.15C159.11 216.93 160.76 216.32 162.77 216.32C164.01 216.32 165.34 216.63 166.74 217.24C167.39 217.53 167.84 217.67 168.11 217.67C168.41 217.67 168.66 217.58 168.85 217.4C169.04 217.23 169.19 216.86 169.31 216.32L169.95 216.32ZM186.52 239.75L186.52 240.39L176.44 240.39L176.44 239.75L177.27 239.75C178.24 239.75 178.95 239.46 179.39 238.9C179.66 238.53 179.8 237.64 179.8 236.22L179.8 221.02C179.8 219.83 179.73 219.04 179.58 218.66C179.46 218.37 179.23 218.12 178.87 217.92C178.36 217.64 177.82 217.5 177.27 217.5L176.44 217.5L176.44 216.86L186.52 216.86L186.52 217.5L185.67 217.5C184.71 217.5 184.01 217.78 183.57 218.35C183.28 218.72 183.13 219.61 183.13 221.02L183.13 236.22C183.13 237.42 183.21 238.2 183.36 238.59C183.48 238.87 183.72 239.12 184.09 239.33C184.59 239.61 185.11 239.75 185.67 239.75L186.52 239.75ZM210.08 216.86L210.34 222.38L209.68 222.38C209.56 221.4 209.38 220.71 209.16 220.29C208.81 219.62 208.33 219.13 207.73 218.81C207.14 218.49 206.35 218.33 205.38 218.33L202.07 218.33L202.07 236.31C202.07 237.76 202.22 238.66 202.53 239.02C202.97 239.51 203.65 239.75 204.56 239.75L205.38 239.75L205.38 240.39L195.4 240.39L195.4 239.75L196.24 239.75C197.23 239.75 197.94 239.45 198.35 238.85C198.61 238.48 198.73 237.63 198.73 236.31L198.73 218.33L195.91 218.33C194.81 218.33 194.03 218.42 193.56 218.58C192.96 218.8 192.45 219.22 192.02 219.84C191.59 220.47 191.34 221.31 191.26 222.38L190.59 222.38L190.87 216.86L210.08 216.86ZM230.3 216.86L238.51 216.86L238.51 217.5L238.06 217.5C237.76 217.5 237.32 217.63 236.74 217.9C236.16 218.16 235.63 218.55 235.16 219.05C234.69 219.54 234.1 220.35 233.41 221.47L227.73 230.41L227.73 236.31C227.73 237.76 227.89 238.66 228.22 239.02C228.66 239.51 229.35 239.75 230.3 239.75L231.06 239.75L231.06 240.39L221.07 240.39L221.07 239.75L221.9 239.75C222.89 239.75 223.6 239.45 224.02 238.85C224.27 238.48 224.4 237.63 224.4 236.31L224.4 230.74L217.94 220.89C217.18 219.73 216.66 219 216.39 218.72C216.12 218.43 215.55 218.08 214.7 217.67C214.47 217.56 214.13 217.5 213.69 217.5L213.69 216.86L223.76 216.86L223.76 217.5L223.24 217.5C222.69 217.5 222.19 217.63 221.74 217.88C221.28 218.14 221.05 218.52 221.05 219.03C221.05 219.44 221.4 220.2 222.11 221.28L227.02 228.87L231.64 221.61C232.33 220.53 232.68 219.72 232.68 219.18C232.68 218.86 232.59 218.57 232.42 218.32C232.26 218.06 232.02 217.86 231.71 217.72C231.39 217.57 230.92 217.5 230.3 217.5L230.3 216.86Z" />
</svg>